<svg xmlns="http://www.w3.org/2000/svg" version="1.1" viewBox="-5.0 -10.0 110.0 135.0">
 <path d="m93.469 33.188-1.1484 0.18359-0.65625-3.9883c-0.26953-1.7891-2.2852-2.9375-3.9648-2.2305l-1.3398-4.7148c-0.26562-0.92188-0.96094-1.6562-1.8594-1.9688-1.2031-0.46094-2.4375 0.10547-3.3633 0.89062-2.3359 1.6641-7.4258 5.3711-10.789 7.5352 2.3516-2.5664 4.4258-5.3438 6.1367-8.3477 0.42578-0.75 0.16406-1.7031-0.58594-2.1328-0.74609-0.42578-1.7031-0.16406-2.1289 0.58594-2.4727 4.3477-5.6953 8.2383-9.582 11.57-0.69922 0.58203-0.75391 1.7891 0.007812 2.332-0.62891 0.82031-0.13281 2.1836 0.89063 2.3945-1.1133 0.375-1.375 1.9648-0.42578 2.6602-1.3555 0.87891-0.51172 3.1172 1.125 2.8242 4.6602-0.73438 23.602-3.7773 27.973-4.4805v45.172l-31.219 4.9844v-32.684c-0.035156-2.043-3.0898-2.0625-3.125 0v34.488c-0.12891 0.33984-1.5117 1.2148-3.9375 1.2148-2.4375 0-3.8242-0.88672-3.9375-1.1875v-23.375c-0.03125-2.0508-3.0938-2.0547-3.125 0v21.543l-31.219-4.9844v-16.59c0-0.86328-0.69922-1.5625-1.5625-1.5625-0.86328 0-1.5625 0.69922-1.5625 1.5625v16.75c0 1.4492 1.0391 2.6719 2.4727 2.9023l32.238 5.1445c1.6641 3.8477 11.727 3.8477 13.387 0l32.242-5.1445c1.4297-0.23047 2.4688-1.4531 2.4688-2.9023v-45.547c0.03125-1.7617-1.6484-3.2031-3.4062-2.9023zm-17.867-4.0547c3.4102-2.3984 5.7305-4.0664 7.8281-5.5742l1.3789 4.8477c-5.6484 2.4297-12.199 4.7539-17.949 6.3633 2.8867-1.7148 5.8203-3.5977 8.7422-5.6406zm-4.4961 7.6484c5.6836-1.7773 12.125-4.1562 17.516-6.6367l0.61328 3.7227-18.129 2.9102z"/>
 <path d="m69.594 58.039 17.863-2.3828c1.4531-0.19141 2.5469-1.4453 2.5469-2.9102v-9.5938c0.035156-1.7227-1.6094-3.1797-3.3242-2.9102l-17.863 2.3828c-1.4531 0.19531-2.5469 1.4453-2.5469 2.9102v9.5938c-0.039062 1.7227 1.625 3.1797 3.3242 2.9102zm-0.19531-12.336 17.484-2.332v9.2148l-17.484 2.332z"/>
 <path d="m32.812 66.652c16.371 0 29.688-13.316 29.688-29.688-1.6289-39.383-57.75-39.371-59.375 0 0 16.371 13.316 29.688 29.688 29.688zm-23.438-31.258c-0.039062 0.007813-3.0469 0.007813-3.0469 0.007813 0.78516-13.398 11.523-24.137 24.922-24.922v3.0469c0 0.86328 0.69922 1.5625 1.5625 1.5625 0.87109 0 1.5703-0.69922 1.5703-1.5625-0.007812-0.039063-0.007812-3.0469-0.007812-3.0469 13.398 0.78516 24.137 11.523 24.922 24.922h-3.0469c-0.86328 0-1.5625 0.69922-1.5625 1.5625 0 0.87109 0.69922 1.5703 1.5625 1.5703 0.039062-0.007812 3.0469-0.007812 3.0469-0.007812-0.78516 13.398-11.523 24.137-24.922 24.922v-3.0469c0-0.86328-0.69922-1.5625-1.5625-1.5625-0.87109 0-1.5703 0.69922-1.5703 1.5625 0.007812 0.039062 0.007812 3.0469 0.007812 3.0469-13.398-0.78516-24.137-11.523-24.922-24.922h3.0469c2.0586-0.035156 2.0508-3.1016 0-3.1328z"/>
 <path d="m21.844 55.895c-1.8125-0.96875-3.2969 1.7031-1.5156 2.7305 1.8086 0.98828 3.3086-1.6992 1.5156-2.7305z"/>
 <path d="m12.512 50.246c2.6055-0.17188 1.6094-4.0547-0.75781-2.9375-1.3984 0.70703-0.79297 2.9961 0.75781 2.9375z"/>
 <path d="m11.754 26.613c1.8008 0.96484 3.3086-1.707 1.5195-2.7383-1.8164-0.96875-3.3008 1.7188-1.5195 2.7383z"/>
 <path d="m21.098 18.227c2.6094-0.17187 1.6133-4.0469-0.75391-2.9297-1.4219 0.72656-0.79688 2.9883 0.75391 2.9297z"/>
 <path d="m43.777 18.035c1.8008 0.96875 3.3008-1.6992 1.5156-2.7305-1.8047-1-3.3008 1.7344-1.5156 2.7305z"/>
 <path d="m53.117 26.816c2.6133-0.17578 1.5938-4.0586-0.76563-2.9336-1.4023 0.71875-0.78516 2.9961 0.76563 2.9336z"/>
 <path d="m53.871 47.316c-1.8125-0.96094-3.3008 1.7109-1.5195 2.7383 1.8086 0.97266 3.3047-1.7148 1.5195-2.7383z"/>
 <path d="m43.766 55.898c-1.7852 1.0312-0.28516 3.6992 1.5156 2.7305 1.8008-1.0078 0.27734-3.7188-1.5156-2.7305z"/>
 <path d="m32.812 41.652c1 0 1.9219-0.32031 2.6836-0.85547l7.3438 5.25c0.69531 0.49609 1.6758 0.34375 2.1797-0.36328 0.50391-0.70312 0.33984-1.6758-0.36328-2.1797l-7.3594-5.2617c0.46484-1.4141 0.078125-3.082-0.83594-4.1836l5.4844-8.7695c0.45703-0.73047 0.23438-1.6953-0.49609-2.1523-0.73438-0.46094-1.6953-0.23438-2.1523 0.49609l-5.4766 8.7578c-6.7695-1.1836-7.875 8.9414-1.0117 9.2578zm0-6.25c2.0547 0.035156 2.0547 3.0898 0 3.125-2.0547-0.035156-2.0547-3.0898 0-3.125z"/>
<text x="0.0" y="117.5" font-size="5.0" font-weight="bold" font-family="Arbeit Regular, Helvetica, Arial-Unicode, Arial, Sans-serif" fill="#000000">Created by LUTFI GANI AL ACHMAD</text><text x="0.0" y="122.5" font-size="5.0" font-weight="bold" font-family="Arbeit Regular, Helvetica, Arial-Unicode, Arial, Sans-serif" fill="#000000">from Noun Project</text></svg>