<svg xmlns="http://www.w3.org/2000/svg" version="1.1" viewBox="-5.0 -10.0 110.0 135.0">
 <path d="m94.605 54.984v-45.684c0-2.5859-2.1016-4.6875-4.6875-4.6875h-44.594c-2.5859 0-4.6875 2.1016-4.6875 4.6875v3.7969c0 0.86328 0.69922 1.5625 1.5625 1.5625s1.5625-0.69922 1.5625-1.5625v-3.7969c0-0.86328 0.69922-1.5625 1.5625-1.5625h44.594c0.86328 0 1.5625 0.69922 1.5625 1.5625v45.312h-20.188c-2.0469 0.035157-2.0586 3.0898 0 3.125h21.711c0.42578 0.011719 0.75781 0.35547 0.75781 0.78125 0 0.42969-0.33203 0.76953-0.71875 0.78125h-17.781c-2.0508 0.03125-2.0547 3.0898 0 3.125h16.938v6.25h-15.219c-0.86328 0-1.5625 0.69922-1.5625 1.5625s0.69922 1.5625 1.5625 1.5625h16c1.0156 0.003907 1.0234 1.5586 0 1.5625h-12.719c-2.0508 0.035157-2.0547 3.0898 0 3.125h12.719c3.6875 0.074219 5.3164-4.8984 2.3438-7.0117v-7.832c2.332-1.582 1.9297-5.6172-0.71875-6.6602z"/>
 <path d="m66.902 45.145h16.719c3.4453 0 6.25-2.8047 6.25-6.25v-22.906c0-3.4453-2.8047-6.25-6.25-6.25h-31.141c-0.86328 0-1.5625 0.69922-1.5625 1.5625s0.69922 1.5625 1.5625 1.5625h31.141c1.7227 0 3.125 1.4023 3.125 3.125v22.906c0 1.7227-1.4023 3.125-3.125 3.125h-16.719c-2.0469 0.027344-2.0586 3.0938 0 3.125z"/>
 <path d="m72.348 32.602c-1.7422 0.65625-3.5234 1.3281-4.793 2.6211-1.2891-1.1055-4.0547-3.3789-5.2188-1.1758-0.33984 0.79297 0.03125 1.7109 0.82422 2.0508 1.8008 0.76953 2.582 1.4727 2.8828 2.6055 0.18359 0.68359 0.80078 1.1602 1.5078 1.1602 0.71094 0 1.3281-0.47266 1.5117-1.1562 0.4375-1.6211 1.875-2.2344 4.3867-3.1797 3.207-1.2109 7.1953-2.7148 9.082-8.1016 3.1992-9.5039-7.1484-17.148-14.977-10.684-2.8359-2.4688-7.5039-3.1367-10.781-1.2852-0.75391 0.42578-1.0195 1.3789-0.59375 2.1289 0.42578 0.75 1.3789 1.0195 2.1289 0.59375 2.457-1.3828 6.3984-0.50391 7.9609 1.7734 0.28906 0.42578 0.77344 0.67578 1.2852 0.67969 0.51562 0 0.99609-0.25391 1.2891-0.67578 1.6406-2.3828 5.8828-3.1992 8.2656-1.5859 2.4414 1.6289 3.5 5.082 2.4688 8.0273-1.4023 4.0078-4.2344 5.0742-7.2344 6.207z"/>
 <path d="m21.426 86.551c1.4844 6.3086 8.1914 10.5 14.453 8.1992l39.09-13.656c3.4922-1.1211 3.4141-6.3906-0.097656-7.3906l-2.5898-7.4141c1.6875-2.2812-0.058594-5.9141-2.8828-6.0352l-15.062-43.129c-0.86328-2.4258-3.5352-3.7148-5.9727-2.8711l-42.094 14.699c-2.4258 0.86328-3.7148 3.5391-2.875 5.9727zm47.875-21.684c-0.054687 0.019531-39.09 13.656-39.09 13.656-5.1797 1.6953-5.6172 9.2656-0.65234 11.527 1.5 0.72266 3.1914 0.82031 4.7578 0.27734 0.019532-0.003906 39.137-13.664 39.137-13.664 0.40234-0.12109 0.82812 0.089844 0.96484 0.48438 0.12109 0.50391-0.023438 0.76953-0.48047 0.99219l-39.09 13.656c-9.8438 3.0664-14.816-10.98-5.1523-14.754 0.24219-0.035157 39.117-13.754 39.348-13.699 0.83984-0.019531 1.0859 1.2539 0.25781 1.5195zm2.3594 9.1094-38.355 13.398c-1.5664 0.58984-3.4609-0.32812-3.9805-1.918-0.56641-1.6211 0.28516-3.3945 1.8984-3.9727 0.019532-0.003906 38.375-13.402 38.375-13.402l2.0586 5.8945zm-64.352-42.078 42.09-14.703c0.8125-0.27734 1.7109 0.15234 1.9961 0.96094l14.938 42.781-37.668 13.156c-2.8906 1.0078-5.0859 3.1211-6.2891 5.6953l-16.027-45.891c-0.28125-0.8125 0.15234-1.7109 0.96094-2z"/>
 <path d="m17.508 61.34c1.1328 3.2852 4.793 4.9727 7.9648 3.8398l30.328-10.594c3.1953-1.043 5.0156-4.8125 3.8398-7.9609l-7.5508-21.613c-1.0469-3.1953-4.8086-5.0117-7.9609-3.8398l-30.332 10.594c-3.25 1.1367-4.9727 4.707-3.8398 7.9609zm-2.6797-26.629 30.332-10.594c1.5742-0.58203 3.4609 0.32031 3.9805 1.918l7.5508 21.617c0.58594 1.5742-0.32031 3.4609-1.918 3.9805l-30.328 10.594c-1.6289 0.57031-3.4102-0.29297-3.9805-1.918l-7.5508-21.613c-0.56641-1.6289 0.29297-3.4141 1.918-3.9805z"/>
 <path d="m31.906 52.746c2.6797 0.066406 4.2383 0.17188 5.1875 1.5625 0.29688 0.4375 0.78516 0.68359 1.2891 0.68359 0.88672 0.011718 1.6367-0.78906 1.5586-1.6758-0.125-1.6797 1.0312-2.7344 3.0859-4.4531 2.625-2.1992 5.8945-4.9336 5.8945-10.648 0-4.5625-3.0742-8.6797-7.3086-9.793-3.8516-1.0117-8.3789 1.1641-10.344 4.6484-3.6992-1.5039-8.6016-0.39062-10.984 2.8008-2.6211 3.5078-2.4648 8.6445 0.375 12.215 3.5586 4.4688 7.8203 4.5742 11.242 4.6602zm-9.1172-15c1.6992-2.2773 5.9531-2.9414 8.3281-1.2148 0.41797 0.30859 0.95703 0.38672 1.4414 0.21484 0.48438-0.16797 0.85938-0.57031 0.99219-1.0664 0.75781-2.7852 4.4961-4.957 7.2734-4.2344 2.8398 0.74609 4.9766 3.6562 4.9766 6.7695 0.13281 6.6016-5.9258 7.6211-8.4336 12.301-4.8789-2.1016-10.25 0.87109-14.258-4.375-1.9414-2.4375-2.0781-6.0469-0.32031-8.3945z"/>
<text x="0.0" y="117.5" font-size="5.0" font-weight="bold" font-family="Arbeit Regular, Helvetica, Arial-Unicode, Arial, Sans-serif" fill="#000000">Created by LUTFI GANI AL ACHMAD</text><text x="0.0" y="122.5" font-size="5.0" font-weight="bold" font-family="Arbeit Regular, Helvetica, Arial-Unicode, Arial, Sans-serif" fill="#000000">from Noun Project</text></svg>