<svg xmlns="http://www.w3.org/2000/svg" version="1.1" viewBox="-5.0 -10.0 110.0 135.0">
 <path d="m14.301 59.312c-2.0273-0.27734-2.5039 2.7422-0.47266 3.0898l10.445 1.6055c0.83203 0.13281 1.6523-0.44922 1.7812-1.3086 0.13281-0.85156-0.45313-1.6484-1.3086-1.7812z"/>
 <path d="m93.254 29.652-1.5156 0.24219-0.79297-4.7422c-0.28906-1.9844-2.5742-3.2031-4.3906-2.3242-0.035157 0.015625-1.6328-5.5586-1.6328-5.5586-0.51953-2.0352-3.1445-2.957-4.8242-1.6836-1.4297 1.0312-2.5859 1.8711-4.3398 3.1211-1.6562 1.1914 0.14063 3.7227 1.8125 2.5469 1.7539-1.25 2.9141-2.0938 4.3398-3.125l1.7148 5.9922c-1.4141 0.60938-2.832 1.2031-4.3125 1.7773-0.80469 0.3125-1.2031 1.2188-0.89062 2.0234s1.2188 1.2031 2.0234 0.89062c2.4961-0.96875 5.0664-2.0703 7.4062-3.1367l0.78906 4.7188-5.5273 0.88672c-2.0195 0.36328-1.5391 3.375 0.49609 3.0859 2.0898-0.33984 8.1367-1.3164 10.125-1.6367l0.003906 51.801-35.941 5.7422v-15.684c-0.035156-2.0508-3.0898-2.0547-3.125 0v17.516c0 0.39062-1.6641 1.5625-4.6875 1.5625s-4.6875-1.1719-4.6875-1.5625v-17.516c-0.03125-2.0469-3.0898-2.0586-3.125 0v15.684l-35.938-5.7461 0.003906-51.785 9.9609 1.582c2.0586 0.45312 2.8047-2.6523 0.65234-3.0625 0 0-5.5273-0.87891-5.5273-0.87891l0.77734-4.7266c2.3711 1.0938 4.7578 2.1055 7.4492 3.1641 0.80469 0.31641 1.7109-0.078124 2.0273-0.88281 0.31641-0.80078-0.078125-1.7109-0.88281-2.0273-1.543-0.60547-2.9766-1.207-4.3477-1.7969l1.707-5.9961c1.4609 1.0547 2.625 1.8984 4.3633 3.1445 0.70312 0.5 1.6758 0.33984 2.1797-0.36328 0.50391-0.70313 0.33984-1.6758-0.36328-2.1797-1.2852-0.91797-2.4062-1.7305-3.3281-2.3945l-1.0352-0.74609c-1.6719-1.2656-4.3008-0.34375-4.8164 1.6836l-1.5977 5.5781c-1.8555-0.89844-4.125 0.30859-4.4258 2.3125l-0.79297 4.7383-1.5078-0.23828c-1.8359-0.33984-3.6719 1.2031-3.6289 3.0742v51.797c0 1.5391 1.1016 2.8359 2.6289 3.0898l36.797 5.8789c1.8867 4.3477 13.016 4.3438 14.902 0l36.805-5.8789c1.5156-0.25 2.6211-1.5508 2.6211-3.0859l0.019531-51.801c0.042969-1.8633-1.7891-3.418-3.6211-3.0742z"/>
 <path d="m65.723 54.367c-2.2188 0.074218-1.9609 3.4414 0.26953 3.1172 0.039062-0.003906 20.363-2.7109 20.363-2.7109 1.543-0.21484 2.7031-1.5469 2.7031-3.0938v-10.906c0.042968-1.8398-1.7188-3.3906-3.5352-3.1094l-8.5156 1.1406c-2.0352 0.3125-1.6211 3.332 0.41406 3.0977l8.5117-1.125-0.003906 10.906-20.211 2.6875z"/>
 <path d="m23.137 45.082c2.0234 0.28125 2.5078-2.7383 0.47656-3.0898l-9.3125-1.4375c-0.85156-0.125-1.6523 0.45312-1.7812 1.3047-0.13281 0.85156 0.45312 1.6484 1.3047 1.7812l9.3125 1.4375z"/>
 <path d="m13.824 48.332 8.0938 1.25c0.082031 0.011719 0.16016 0.019531 0.24219 0.019531 1.8789 0.011719 2.1172-2.8242 0.23828-3.1055l-8.0938-1.25c-2.0312-0.27734-2.5039 2.7383-0.47656 3.0898z"/>
 <path d="m13.824 53.02c0.10547 0.011719 13.945 2.1484 14.043 2.1523 0 0 3.5469 0.55078 3.5469 0.55078 0.082032 0.011719 0.16016 0.019532 0.24219 0.019532 1.8789 0.011718 2.1172-2.8242 0.23828-3.1055-2.4414-0.37891-14.895-2.2852-17.594-2.7031-2.0273-0.27344-2.5078 2.7383-0.47266 3.0898z"/>
 <path d="m34.379 60.859c1.8789 0.011719 2.1211-2.8242 0.23438-3.1055 0 0-20.312-3.125-20.312-3.125-2.0273-0.27344-2.5078 2.7383-0.47266 3.0898 0 0 20.312 3.125 20.312 3.125 0.082031 0.011719 0.16016 0.019531 0.23828 0.019531z"/>
 <path d="m61.801 51.52c0-2.4531 1.0156-4.9023 2.8594-6.8906 3.4375-3.707 5.3281-8.5312 5.3281-13.586 0.23438-10.953-9.6055-20.535-20.555-19.98-16.898 0.40625-25.777 21.25-14.086 33.574 1.8398 1.9805 2.8516 4.4258 2.8516 6.8789 0 1.9453 0.98828 3.6602 2.4844 4.6797-0.76953 1.0742-0.32812 5.8789-0.4375 7.3086-0.003906 2.2266 1.8789 4.0039 4.0938 3.9062v1.4531c0 2.5859 2.1016 4.6875 4.6875 4.6875h1.9375c2.5859 0 4.6875-2.1016 4.6875-4.6875v-1.4531c2.2188 0.097656 4.1016-1.6797 4.0938-3.9062-0.10938-1.5234 0.33594-6.1914-0.4375-7.3086 1.5-1.0195 2.4844-2.7344 2.4844-4.6797zm-9.2695 17.348c0 0.86328-0.69922 1.5625-1.5625 1.5625h-1.9375c-0.86328 0-1.5625-0.69922-1.5625-1.5625v-1.4531h5.0625zm4.0938-5.3633c-0.039062 1.1562-1.6094 0.69141-2.5312 0.78125h-9.9414c-0.42969 0-0.78125-0.35156-0.78125-0.78125v-5.5508c0-0.42969 0.35156-0.78125 0.78125-0.78125h11.691c0.42969 0 0.78125 0.35156 0.78125 0.78125zm2.0508-11.984c0.007813 1.5195-1.3359 2.668-2.8281 2.5312h-11.691-0.29688c-1.3945 0-2.5312-1.1367-2.5312-2.5312 0-3.2461-1.3086-6.4453-3.6875-9.0078-2.9336-3.1602-4.5312-7.2773-4.5-11.59 0.054687-9.1445 7.7227-16.766 16.867-16.742 9.0547-0.1875 17.055 7.8008 16.859 16.863 0 4.2656-1.5977 8.332-4.4961 11.461-2.3828 2.5664-3.6953 5.7695-3.6953 9.0156z"/>
 <path d="m20.543 30.762c-1.1211 0.61719-1.082 2.2578 0.046875 2.7969 5.2969 2.7891 7.4336 9.4102 4.7617 14.785-0.57812 1.0781 0.41406 2.4805 1.625 2.2578 3.1523-0.55469 5.2656 0.55859 8.0195 1.5938 0.53906 0 1.0625-0.28125 1.3555-0.78125 1.4375-2.8711-5.418-4.0039-7.2773-4.0586 1.6016-5.5664-0.37109-11.652-4.9336-15.211 4.5625-3.5586 6.5352-9.6445 4.9336-15.211 5.707-0.10938 11.078-4.0195 12.938-9.3906 4.6953 3.2578 11.301 3.25 15.984 0.007812 1.8711 5.375 7.2305 9.2656 12.93 9.3828-1.6016 5.5664 0.37109 11.652 4.9336 15.211-4.5625 3.5586-6.5352 9.6445-4.9336 15.211-1.8633 0.074219-8.6992 1.1602-7.2773 4.0586 0.43359 0.75391 1.4023 0.99609 2.1367 0.57031 2.1953-1.2695 4.7227-1.75 7.2422-1.3867 1.2031 0.20703 2.207-1.1797 1.625-2.2578-2.6953-5.4062-0.50391-12.043 4.8203-14.824 1.1211-0.59375 1.043-2.168-0.011718-2.7578-5.332-2.7734-7.4883-9.418-4.8047-14.809 0.57422-1.0781-0.40625-2.4766-1.625-2.2578-5.8516 0.97656-11.727-3.3164-12.59-9.1445-0.16016-1.2188-1.793-1.7539-2.6406-0.85938-4.1094 4.2031-11.422 4.2266-15.57-0.003906-0.85547-0.875-2.4961-0.37109-2.6523 0.86719-0.83594 5.8242-6.7578 10.121-12.59 9.1406-1.1953-0.20703-2.2109 1.1797-1.625 2.2578 2.6797 5.3906 0.52344 12.035-4.8047 14.809z"/>
<text x="0.0" y="117.5" font-size="5.0" font-weight="bold" font-family="Arbeit Regular, Helvetica, Arial-Unicode, Arial, Sans-serif" fill="#000000">Created by LUTFI GANI AL ACHMAD</text><text x="0.0" y="122.5" font-size="5.0" font-weight="bold" font-family="Arbeit Regular, Helvetica, Arial-Unicode, Arial, Sans-serif" fill="#000000">from Noun Project</text></svg>