<svg xmlns="http://www.w3.org/2000/svg" version="1.1" viewBox="-5.0 -10.0 110.0 135.0">
 <path d="m39.316 72.523c1.6172-0.61328 1.2539-2.9688-0.46875-3.043-0.19141 0.023437-0.34766 0.015625-0.53125 0.070312l-9.5156 3.2344c-1.5273 0.53906-2.3633 2.0547-2.0625 3.582 0.027344 0.23828 0.73828 2.2266 0.82422 2.5-0.76953 0.30469-1.1758 1.1523-0.91016 1.9414l4.8164 14.168c0.35156 1.1562 2.0078 1.4336 2.7188 0.44922 0 0 2.6523-3.4531 2.6523-3.4531l4.207 1.1211c1.1602 0.34375 2.3086-0.87891 1.8828-2.0117l-4.8164-14.168c-0.27734-0.81641-1.1641-1.2539-1.9805-0.97656l-5.6133 1.9062-0.62891-1.8438c0.015625-0.10156 0.035156-0.21875 0.027344-0.29688l9.4023-3.1797zm-3.6641 6.875 3.375 9.9258c-1.375-0.24609-3.1094-1.3203-4.0352-0.078125l-1.5078 1.9648-3.3711-9.9258 5.543-1.8828z"/>
 <path d="m21.148 78.609c0 0.003906 0.79297 2.3008 0.79297 2.3008 0.42578 1.7422 3.0938 1.418 3.0781-0.39844 0.066407-0.33594-0.82422-2.5508-0.91016-2.9102-0.8125-2.2383 0.5-4.8789 2.7734-5.5977 0 0 15.844-5.3906 15.844-5.3906 1.9219-0.6875 0.95703-3.5898-1.0078-2.957l-15.84 5.3906c-1.5352 0.51953-2.8125 1.5039-3.7266 2.7969l-15.812-46.527c-0.28516-0.79297 0.16406-1.7305 0.97656-1.9844l47.918-16.297c0.8125-0.27734 1.7031 0.16016 1.9766 0.97656l8.3594 24.594c0.67188 1.9219 3.5977 0.95703 2.957-1.0039l-8.3594-24.59c-0.82422-2.4414-3.4844-3.7578-5.9375-2.9336l-47.91 16.293c-1.1875 0.39844-2.1484 1.2344-2.707 2.3594-0.55859 1.1289-0.64062 2.4062-0.23438 3.5977l17.766 52.281z"/>
 <path d="m15.523 26.598 35.074-11.922c1.625-0.55078 3.4141 0.33203 3.9727 1.9609l5.4219 15.969c0.67578 1.9336 3.5938 0.94922 2.957-1.0039l-5.4219-15.977c-1.1211-3.2539-4.6758-5.0117-7.9336-3.9102l-35.074 11.922c-3.207 1.0078-5.0625 4.7852-3.9023 7.9375l8.5938 25.293c1.0039 3.1992 4.7773 5.0625 7.9219 3.9023l17.828-6.0625c1.9336-0.69922 0.94922-3.5859-1.0039-2.957l-17.836 6.0664c-1.5664 0.57812-3.4453-0.35156-3.9453-1.9492l-8.5938-25.301c-0.57812-1.5781 0.33984-3.4609 1.9453-3.9648z"/>
 <path d="m91.625 60.23c10.434-8.3945 4.2422-25.031-9.2383-25h-32.383c-5.2383 0.046875-6.4609 7.3359-1.5625 9.0859v9.9492c-4.3711 1.4805-3.9961 7.9805 0.51562 8.9609-15.051 9.6602-8.2461 32.809 9.6406 32.941h33.594c5.2344-0.046875 6.4609-7.3359 1.5625-9.0859v-17.762c5.2031-1.9336 3.4141-9.5547-2.1289-9.0859zm-43.184-1.5625c0-0.86328 0.69922-1.5625 1.5625-1.5625h32.812c10.441-0.47656 10.281-15.457-0.26953-15.625h-32.543c-0.86328 0-1.5625-0.69922-1.5625-1.5625s0.69922-1.5625 1.5625-1.5625h32.383c14.898 0.42969 15.09 21.242 0.42969 21.875h-23.676-9.1367c-0.86328 0-1.5625-0.69922-1.5625-1.5625zm17.188-9.375h-14.062v-4.6875h30.98c3.9727-0.085938 6.4414 4.5039 3.9336 7.5742-0.85547 1.1211-2.2539 1.7969-3.6641 1.8008h-31.25v-1.5625h14.062c2.0508-0.035157 2.0547-3.0898 0-3.125zm4.6875 25h20.312v3.125h-10.938c-0.86328 0-1.5625 0.69922-1.5625 1.5625s0.69922 1.5625 1.5625 1.5625h10.938v1.5625h-20.312c-0.86328 0-1.5625 0.69922-1.5625 1.5625s0.69922 1.5625 1.5625 1.5625h20.312v1.5625h-32.031c-4.6758 0.09375-8.7773-4.1055-8.5859-8.7773 0.085937-4.6094 4.1484-8.4141 9.0117-8.4102h31.605v1.5625h-20.312c-2.0508 0.035156-2.0547 3.0898 0 3.125zm-11.293-7.8125c-6.6406-0.26562-12.16 5.2383-12.145 11.719-0.09375 6.2852 5.4102 11.848 11.719 11.719h33.594c2.0391 0.03125 2.0625 3.0898 0 3.125h-33.594c-19.906-0.75781-19.512-29.133 0.54297-29.688h33.051c2.0312 0.039062 2.0742 3.082 0 3.125h-33.168z"/>
 <path d="m70.316 52.418h3.125c2.0547-0.035157 2.0547-3.0898 0-3.125h-3.125c-2.0547 0.035156-2.0547 3.0898 0 3.125z"/>
 <path d="m60.941 74.293h4.6875c0.27734-0.0625 0.44141-0.0625 0.71875 0 2.0898-0.03125 2.0586-3.0938 0-3.125-0.30469 0.054687-4.9375-0.03125-5.4062 0-2.0508 0.035156-2.0547 3.0898 0 3.125z"/>
 <path d="m56.262 74.293c2.0547-0.035157 2.0547-3.0898 0-3.125-2.0742 0.03125-2.0547 3.0898 0 3.125z"/>
 <path d="m54.691 78.98c0 0.86328 0.69922 1.5625 1.5625 1.5625h17.188c0.86328 0 1.5625-0.69922 1.5625-1.5625s-0.69922-1.5625-1.5625-1.5625h-17.188c-0.86328 0-1.5625 0.69922-1.5625 1.5625z"/>
 <path d="m65.629 82.105h-7.8125c-2.0508 0.035156-2.0547 3.0898 0 3.125h7.8125c2.0508-0.035157 2.0547-3.0898 0-3.125z"/>
<text x="0.0" y="117.5" font-size="5.0" font-weight="bold" font-family="Arbeit Regular, Helvetica, Arial-Unicode, Arial, Sans-serif" fill="#000000">Created by LUTFI GANI AL ACHMAD</text><text x="0.0" y="122.5" font-size="5.0" font-weight="bold" font-family="Arbeit Regular, Helvetica, Arial-Unicode, Arial, Sans-serif" fill="#000000">from Noun Project</text></svg>