<svg xmlns="http://www.w3.org/2000/svg" version="1.1" viewBox="-5.0 -10.0 110.0 135.0">
 <path d="m10.945 78.906h25.434l-2.2422 3.9258c-1.832 2.9727 0.57812 7.1328 4.0703 7.0117h17.355c3.4883 0.11719 5.9062-4.043 4.0703-7.0117 0 0-2.2422-3.9258-2.2422-3.9258h25.434c4.3086 0 7.8125-3.5039 7.8125-7.8125v-25.094c0-0.86328-0.69922-1.5625-1.5625-1.5625s-1.5625 0.69922-1.5625 1.5625v25.094c0 2.5859-2.1016 4.6875-4.6875 4.6875h-43.75-28.129c-2.5859 0-4.6875-2.1016-4.6875-4.6875v-53.125c0-2.5859 2.1016-4.6875 4.6875-4.6875h71.875c2.4102 0 4.4141 1.8047 4.668 4.1953 0.23438 2.0391 3.2969 1.7148 3.1055-0.32812-0.41797-3.9844-3.7578-6.9922-7.7734-6.9922h-71.875c-4.3086 0-7.8125 3.5039-7.8125 7.8125v53.125c0 4.3086 3.5039 7.8125 7.8125 7.8125zm25.902 5.4727 3.1289-5.4766h13.812l3.1289 5.4766c0.40234 0.70312 0.12891 1.3242-0.007813 1.5586-0.13672 0.23438-0.53906 0.77734-1.3516 0.77734h-17.355c-0.8125 0-1.2148-0.54297-1.3516-0.77734-0.13672-0.23438-0.41016-0.85547-0.007812-1.5586z"/>
 <path d="m12.508 17.969c2.0547-0.035156 2.0547-3.0898 0-3.125h-1.5625c-2.0547 0.035156-2.0547 3.0898 0 3.125z"/>
 <path d="m18.758 17.969c2.0547-0.035156 2.0547-3.0898 0-3.125h-1.5625c-2.0547 0.035156-2.0547 3.0898 0 3.125z"/>
 <path d="m25.008 17.969c2.0547-0.035156 2.0547-3.0898 0-3.125h-1.5625c-2.0547 0.035156-2.0547 3.0898 0 3.125z"/>
 <path d="m7.8203 22.656c0 0.86328 0.69922 1.5625 1.5625 1.5625h15.625c0.86328 0 1.5625-0.69922 1.5625-1.5625s-0.69922-1.5625-1.5625-1.5625h-15.625c-0.86328 0-1.5625 0.69922-1.5625 1.5625z"/>
 <path d="m37.508 27.344h-28.125c-2.0469 0.03125-2.0586 3.0898 0 3.125h28.125c2.0469-0.03125 2.0625-3.0898 0-3.125z"/>
 <path d="m37.508 33.594h-28.125c-2.0469 0.03125-2.0586 3.0898 0 3.125h28.125c2.0469-0.03125 2.0625-3.0898 0-3.125z"/>
 <path d="m37.508 39.844h-28.125c-2.0469 0.03125-2.0586 3.0898 0 3.125h28.125c2.0469-0.03125 2.0625-3.0898 0-3.125z"/>
 <path d="m15.633 49.219c2.0508-0.035156 2.0547-3.0898 0-3.125h-6.25c-2.0508 0.035156-2.0547 3.0898 0 3.125z"/>
 <path d="m9.3828 55.469h28.125c2.0469-0.03125 2.0625-3.0898 0-3.125h-28.125c-2.0469 0.03125-2.0586 3.0898 0 3.125z"/>
 <path d="m39.07 60.156c0-0.86328-0.69922-1.5625-1.5625-1.5625h-28.125c-0.86328 0-1.5625 0.69922-1.5625 1.5625s0.69922 1.5625 1.5625 1.5625h28.125c0.86328 0 1.5625-0.69922 1.5625-1.5625z"/>
 <path d="m9.3828 64.844c-2.0469 0.03125-2.0586 3.0898 0 3.125h23.438c2.0469-0.03125 2.0586-3.0898 0-3.125z"/>
 <path d="m70.32 24.219c2.0508-0.03125 2.0586-3.0898 0-3.125h-20.312c-2.0469 0.03125-2.0586 3.0898 0 3.125z"/>
 <path d="m50.008 30.469h19.953c2.0469-0.03125 2.0586-3.0898 0-3.125h-19.953c-2.0469 0.03125-2.0586 3.0898 0 3.125z"/>
 <path d="m50.008 36.719h14.266c2.0508-0.03125 2.0586-3.0898 0-3.125h-14.266c-2.0508 0.03125-2.0586 3.0898 0 3.125z"/>
 <path d="m50.008 42.969h8.5938c2.0508-0.035156 2.0547-3.0898 0-3.125h-8.5938c-2.0508 0.035156-2.0547 3.0898 0 3.125z"/>
 <path d="m42.195 22.656v45.312c0.03125 2.0391 3.0898 2.0664 3.125 0v-45.312c-0.03125-2.0391-3.0898-2.0664-3.125 0z"/>
 <path d="m81.523 20.816-29.191 32.121c-0.19141 0.21094-0.29297 0.48047-0.375 0.74609-0.76562 3.8008-2.332 11.68-3.1016 15.512-0.25781 1.1094 0.90234 2.168 1.9844 1.8008l8.3398-2.5195c0.45703-0.21875 7.4609-2.0195 7.5117-2.4883 0 0 29.188-32.117 29.188-32.117 4.9219-6.4609-9.8594-18.273-14.355-13.051zm-0.50781 5.2031c0.26172 0.71875 0.625 1.457 1.1016 2.207l-22.359 24.602c-0.78906-0.40625-1.5586-0.69922-2.2969-0.89453l23.555-25.918zm3.0703 4.6914c0.53125 0.54297 1.1055 1.0703 1.7031 1.5469l-21.664 23.84c-0.52344-0.54297-1.1133-1.082-1.7031-1.5469zm-31.656 36.539 0.77734-3.8789c1.1133 0.75391 2.1406 1.6836 2.9844 2.7031 0.027344 0.03125-3.7578 1.1758-3.7578 1.1758zm12.086-3.6406-5.1055 1.5352c-1.4531-2.0391-3.3867-3.8008-5.5508-5.0352l1.0469-5.2305c3.1914-0.99609 10.297 5.4375 9.6133 8.7344zm2.6797-2.8281c-0.26562-0.71875-0.62891-1.4531-1.1094-2.1992l22.363-24.609c0.79297 0.40625 1.5625 0.69531 2.3047 0.88672zm26.242-31.137c2.0078 5.6172-6.8281 0.11328-8.0898-2.2422-1.7812-2.4219-2.4961-4.793-0.63672-4.7422 2.3945-0.29688 7.8633 4.0117 8.7266 6.9844z"/>
<text x="0.0" y="117.5" font-size="5.0" font-weight="bold" font-family="Arbeit Regular, Helvetica, Arial-Unicode, Arial, Sans-serif" fill="#000000">Created by LUTFI GANI AL ACHMAD</text><text x="0.0" y="122.5" font-size="5.0" font-weight="bold" font-family="Arbeit Regular, Helvetica, Arial-Unicode, Arial, Sans-serif" fill="#000000">from Noun Project</text></svg>