<svg xmlns="http://www.w3.org/2000/svg">
 <defs>
     <symbol id="icon-books" viewBox="-5.0 -10.0 110.0 135.0">
       <svg xmlns="http://www.w3.org/2000/svg" version="1.1" viewBox="-5.0 -10.0 110.0 135.0">
           <path d="m39.316 72.523c1.6172-0.61328 1.2539-2.9688-0.46875-3.043-0.19141 0.023437-0.34766 0.015625-0.53125 0.070312l-9.5156 3.2344c-1.5273 0.53906-2.3633 2.0547-2.0625 3.582 0.027344 0.23828 0.73828 2.2266 0.82422 2.5-0.76953 0.30469-1.1758 1.1523-0.91016 1.9414l4.8164 14.168c0.35156 1.1562 2.0078 1.4336 2.7188 0.44922 0 0 2.6523-3.4531 2.6523-3.4531l4.207 1.1211c1.1602 0.34375 2.3086-0.87891 1.8828-2.0117l-4.8164-14.168c-0.27734-0.81641-1.1641-1.2539-1.9805-0.97656l-5.6133 1.9062-0.62891-1.8438c0.015625-0.10156 0.035156-0.21875 0.027344-0.29688l9.4023-3.1797zm-3.6641 6.875 3.375 9.9258c-1.375-0.24609-3.1094-1.3203-4.0352-0.078125l-1.5078 1.9648-3.3711-9.9258 5.543-1.8828z"/>
           <path d="m21.148 78.609c0 0.003906 0.79297 2.3008 0.79297 2.3008 0.42578 1.7422 3.0938 1.418 3.0781-0.39844 0.066407-0.33594-0.82422-2.5508-0.91016-2.9102-0.8125-2.2383 0.5-4.8789 2.7734-5.5977 0 0 15.844-5.3906 15.844-5.3906 1.9219-0.6875 0.95703-3.5898-1.0078-2.957l-15.84 5.3906c-1.5352 0.51953-2.8125 1.5039-3.7266 2.7969l-15.812-46.527c-0.28516-0.79297 0.16406-1.7305 0.97656-1.9844l47.918-16.297c0.8125-0.27734 1.7031 0.16016 1.9766 0.97656l8.3594 24.594c0.67188 1.9219 3.5977 0.95703 2.957-1.0039l-8.3594-24.59c-0.82422-2.4414-3.4844-3.7578-5.9375-2.9336l-47.91 16.293c-1.1875 0.39844-2.1484 1.2344-2.707 2.3594-0.55859 1.1289-0.64062 2.4062-0.23438 3.5977l17.766 52.281z"/>
           <path d="m15.523 26.598 35.074-11.922c1.625-0.55078 3.4141 0.33203 3.9727 1.9609l5.4219 15.969c0.67578 1.9336 3.5938 0.94922 2.957-1.0039l-5.4219-15.977c-1.1211-3.2539-4.6758-5.0117-7.9336-3.9102l-35.074 11.922c-3.207 1.0078-5.0625 4.7852-3.9023 7.9375l8.5938 25.293c1.0039 3.1992 4.7773 5.0625 7.9219 3.9023l17.828-6.0625c1.9336-0.69922 0.94922-3.5859-1.0039-2.957l-17.836 6.0664c-1.5664 0.57812-3.4453-0.35156-3.9453-1.9492l-8.5938-25.301c-0.57812-1.5781 0.33984-3.4609 1.9453-3.9648z"/>
           <path d="m91.625 60.23c10.434-8.3945 4.2422-25.031-9.2383-25h-32.383c-5.2383 0.046875-6.4609 7.3359-1.5625 9.0859v9.9492c-4.3711 1.4805-3.9961 7.9805 0.51562 8.9609-15.051 9.6602-8.2461 32.809 9.6406 32.941h33.594c5.2344-0.046875 6.4609-7.3359 1.5625-9.0859v-17.762c5.2031-1.9336 3.4141-9.5547-2.1289-9.0859zm-43.184-1.5625c0-0.86328 0.69922-1.5625 1.5625-1.5625h32.812c10.441-0.47656 10.281-15.457-0.26953-15.625h-32.543c-0.86328 0-1.5625-0.69922-1.5625-1.5625s0.69922-1.5625 1.5625-1.5625h32.383c14.898 0.42969 15.09 21.242 0.42969 21.875h-23.676-9.1367c-0.86328 0-1.5625-0.69922-1.5625-1.5625zm17.188-9.375h-14.062v-4.6875h30.98c3.9727-0.085938 6.4414 4.5039 3.9336 7.5742-0.85547 1.1211-2.2539 1.7969-3.6641 1.8008h-31.25v-1.5625h14.062c2.0508-0.035157 2.0547-3.0898 0-3.125zm4.6875 25h20.312v3.125h-10.938c-0.86328 0-1.5625 0.69922-1.5625 1.5625s0.69922 1.5625 1.5625 1.5625h10.938v1.5625h-20.312c-0.86328 0-1.5625 0.69922-1.5625 1.5625s0.69922 1.5625 1.5625 1.5625h20.312v1.5625h-32.031c-4.6758 0.09375-8.7773-4.1055-8.5859-8.7773 0.085937-4.6094 4.1484-8.4141 9.0117-8.4102h31.605v1.5625h-20.312c-2.0508 0.035156-2.0547 3.0898 0 3.125zm-11.293-7.8125c-6.6406-0.26562-12.16 5.2383-12.145 11.719-0.09375 6.2852 5.4102 11.848 11.719 11.719h33.594c2.0391 0.03125 2.0625 3.0898 0 3.125h-33.594c-19.906-0.75781-19.512-29.133 0.54297-29.688h33.051c2.0312 0.039062 2.0742 3.082 0 3.125h-33.168z"/>
           <path d="m70.316 52.418h3.125c2.0547-0.035157 2.0547-3.0898 0-3.125h-3.125c-2.0547 0.035156-2.0547 3.0898 0 3.125z"/>
           <path d="m60.941 74.293h4.6875c0.27734-0.0625 0.44141-0.0625 0.71875 0 2.0898-0.03125 2.0586-3.0938 0-3.125-0.30469 0.054687-4.9375-0.03125-5.4062 0-2.0508 0.035156-2.0547 3.0898 0 3.125z"/>
           <path d="m56.262 74.293c2.0547-0.035157 2.0547-3.0898 0-3.125-2.0742 0.03125-2.0547 3.0898 0 3.125z"/>
           <path d="m54.691 78.98c0 0.86328 0.69922 1.5625 1.5625 1.5625h17.188c0.86328 0 1.5625-0.69922 1.5625-1.5625s-0.69922-1.5625-1.5625-1.5625h-17.188c-0.86328 0-1.5625 0.69922-1.5625 1.5625z"/>
           <path d="m65.629 82.105h-7.8125c-2.0508 0.035156-2.0547 3.0898 0 3.125h7.8125c2.0508-0.035157 2.0547-3.0898 0-3.125z"/>
           <text x="0.0" y="117.5" font-size="5.0" font-weight="bold" font-family="Arbeit Regular, Helvetica, Arial-Unicode, Arial, Sans-serif" fill="#000000">Created by LUTFI GANI AL ACHMAD</text><text x="0.0" y="122.5" font-size="5.0" font-weight="bold" font-family="Arbeit Regular, Helvetica, Arial-Unicode, Arial, Sans-serif" fill="#000000">from Noun Project</text></svg>
     </symbol>
     <symbol id="icon-time" viewBox="-5.0 -10.0 110.0 135.0">
         <svg xmlns="http://www.w3.org/2000/svg" version="1.1" viewBox="-5.0 -10.0 110.0 135.0">
             <path d="m93.469 33.188-1.1484 0.18359-0.65625-3.9883c-0.26953-1.7891-2.2852-2.9375-3.9648-2.2305l-1.3398-4.7148c-0.26562-0.92188-0.96094-1.6562-1.8594-1.9688-1.2031-0.46094-2.4375 0.10547-3.3633 0.89062-2.3359 1.6641-7.4258 5.3711-10.789 7.5352 2.3516-2.5664 4.4258-5.3438 6.1367-8.3477 0.42578-0.75 0.16406-1.7031-0.58594-2.1328-0.74609-0.42578-1.7031-0.16406-2.1289 0.58594-2.4727 4.3477-5.6953 8.2383-9.582 11.57-0.69922 0.58203-0.75391 1.7891 0.007812 2.332-0.62891 0.82031-0.13281 2.1836 0.89063 2.3945-1.1133 0.375-1.375 1.9648-0.42578 2.6602-1.3555 0.87891-0.51172 3.1172 1.125 2.8242 4.6602-0.73438 23.602-3.7773 27.973-4.4805v45.172l-31.219 4.9844v-32.684c-0.035156-2.043-3.0898-2.0625-3.125 0v34.488c-0.12891 0.33984-1.5117 1.2148-3.9375 1.2148-2.4375 0-3.8242-0.88672-3.9375-1.1875v-23.375c-0.03125-2.0508-3.0938-2.0547-3.125 0v21.543l-31.219-4.9844v-16.59c0-0.86328-0.69922-1.5625-1.5625-1.5625-0.86328 0-1.5625 0.69922-1.5625 1.5625v16.75c0 1.4492 1.0391 2.6719 2.4727 2.9023l32.238 5.1445c1.6641 3.8477 11.727 3.8477 13.387 0l32.242-5.1445c1.4297-0.23047 2.4688-1.4531 2.4688-2.9023v-45.547c0.03125-1.7617-1.6484-3.2031-3.4062-2.9023zm-17.867-4.0547c3.4102-2.3984 5.7305-4.0664 7.8281-5.5742l1.3789 4.8477c-5.6484 2.4297-12.199 4.7539-17.949 6.3633 2.8867-1.7148 5.8203-3.5977 8.7422-5.6406zm-4.4961 7.6484c5.6836-1.7773 12.125-4.1562 17.516-6.6367l0.61328 3.7227-18.129 2.9102z"/>
             <path d="m69.594 58.039 17.863-2.3828c1.4531-0.19141 2.5469-1.4453 2.5469-2.9102v-9.5938c0.035156-1.7227-1.6094-3.1797-3.3242-2.9102l-17.863 2.3828c-1.4531 0.19531-2.5469 1.4453-2.5469 2.9102v9.5938c-0.039062 1.7227 1.625 3.1797 3.3242 2.9102zm-0.19531-12.336 17.484-2.332v9.2148l-17.484 2.332z"/>
             <path d="m32.812 66.652c16.371 0 29.688-13.316 29.688-29.688-1.6289-39.383-57.75-39.371-59.375 0 0 16.371 13.316 29.688 29.688 29.688zm-23.438-31.258c-0.039062 0.007813-3.0469 0.007813-3.0469 0.007813 0.78516-13.398 11.523-24.137 24.922-24.922v3.0469c0 0.86328 0.69922 1.5625 1.5625 1.5625 0.87109 0 1.5703-0.69922 1.5703-1.5625-0.007812-0.039063-0.007812-3.0469-0.007812-3.0469 13.398 0.78516 24.137 11.523 24.922 24.922h-3.0469c-0.86328 0-1.5625 0.69922-1.5625 1.5625 0 0.87109 0.69922 1.5703 1.5625 1.5703 0.039062-0.007812 3.0469-0.007812 3.0469-0.007812-0.78516 13.398-11.523 24.137-24.922 24.922v-3.0469c0-0.86328-0.69922-1.5625-1.5625-1.5625-0.87109 0-1.5703 0.69922-1.5703 1.5625 0.007812 0.039062 0.007812 3.0469 0.007812 3.0469-13.398-0.78516-24.137-11.523-24.922-24.922h3.0469c2.0586-0.035156 2.0508-3.1016 0-3.1328z"/>
             <path d="m21.844 55.895c-1.8125-0.96875-3.2969 1.7031-1.5156 2.7305 1.8086 0.98828 3.3086-1.6992 1.5156-2.7305z"/>
             <path d="m12.512 50.246c2.6055-0.17188 1.6094-4.0547-0.75781-2.9375-1.3984 0.70703-0.79297 2.9961 0.75781 2.9375z"/>
             <path d="m11.754 26.613c1.8008 0.96484 3.3086-1.707 1.5195-2.7383-1.8164-0.96875-3.3008 1.7188-1.5195 2.7383z"/>
             <path d="m21.098 18.227c2.6094-0.17187 1.6133-4.0469-0.75391-2.9297-1.4219 0.72656-0.79688 2.9883 0.75391 2.9297z"/>
             <path d="m43.777 18.035c1.8008 0.96875 3.3008-1.6992 1.5156-2.7305-1.8047-1-3.3008 1.7344-1.5156 2.7305z"/>
             <path d="m53.117 26.816c2.6133-0.17578 1.5938-4.0586-0.76563-2.9336-1.4023 0.71875-0.78516 2.9961 0.76563 2.9336z"/>
             <path d="m53.871 47.316c-1.8125-0.96094-3.3008 1.7109-1.5195 2.7383 1.8086 0.97266 3.3047-1.7148 1.5195-2.7383z"/>
             <path d="m43.766 55.898c-1.7852 1.0312-0.28516 3.6992 1.5156 2.7305 1.8008-1.0078 0.27734-3.7188-1.5156-2.7305z"/>
             <path d="m32.812 41.652c1 0 1.9219-0.32031 2.6836-0.85547l7.3438 5.25c0.69531 0.49609 1.6758 0.34375 2.1797-0.36328 0.50391-0.70312 0.33984-1.6758-0.36328-2.1797l-7.3594-5.2617c0.46484-1.4141 0.078125-3.082-0.83594-4.1836l5.4844-8.7695c0.45703-0.73047 0.23438-1.6953-0.49609-2.1523-0.73438-0.46094-1.6953-0.23438-2.1523 0.49609l-5.4766 8.7578c-6.7695-1.1836-7.875 8.9414-1.0117 9.2578zm0-6.25c2.0547 0.035156 2.0547 3.0898 0 3.125-2.0547-0.035156-2.0547-3.0898 0-3.125z"/>
             <text x="0.0" y="117.5" font-size="5.0" font-weight="bold" font-family="Arbeit Regular, Helvetica, Arial-Unicode, Arial, Sans-serif" fill="#000000">Created by LUTFI GANI AL ACHMAD</text><text x="0.0" y="122.5" font-size="5.0" font-weight="bold" font-family="Arbeit Regular, Helvetica, Arial-Unicode, Arial, Sans-serif" fill="#000000">from Noun Project</text></svg>
     </symbol>
     <symbol id="icon-idea" viewBox="-5.0 -10.0 110.0 135.0">
         <svg xmlns="http://www.w3.org/2000/svg" version="1.1" viewBox="-5.0 -10.0 110.0 135.0">
             <path d="m14.301 59.312c-2.0273-0.27734-2.5039 2.7422-0.47266 3.0898l10.445 1.6055c0.83203 0.13281 1.6523-0.44922 1.7812-1.3086 0.13281-0.85156-0.45313-1.6484-1.3086-1.7812z"/>
             <path d="m93.254 29.652-1.5156 0.24219-0.79297-4.7422c-0.28906-1.9844-2.5742-3.2031-4.3906-2.3242-0.035157 0.015625-1.6328-5.5586-1.6328-5.5586-0.51953-2.0352-3.1445-2.957-4.8242-1.6836-1.4297 1.0312-2.5859 1.8711-4.3398 3.1211-1.6562 1.1914 0.14063 3.7227 1.8125 2.5469 1.7539-1.25 2.9141-2.0938 4.3398-3.125l1.7148 5.9922c-1.4141 0.60938-2.832 1.2031-4.3125 1.7773-0.80469 0.3125-1.2031 1.2188-0.89062 2.0234s1.2188 1.2031 2.0234 0.89062c2.4961-0.96875 5.0664-2.0703 7.4062-3.1367l0.78906 4.7188-5.5273 0.88672c-2.0195 0.36328-1.5391 3.375 0.49609 3.0859 2.0898-0.33984 8.1367-1.3164 10.125-1.6367l0.003906 51.801-35.941 5.7422v-15.684c-0.035156-2.0508-3.0898-2.0547-3.125 0v17.516c0 0.39062-1.6641 1.5625-4.6875 1.5625s-4.6875-1.1719-4.6875-1.5625v-17.516c-0.03125-2.0469-3.0898-2.0586-3.125 0v15.684l-35.938-5.7461 0.003906-51.785 9.9609 1.582c2.0586 0.45312 2.8047-2.6523 0.65234-3.0625 0 0-5.5273-0.87891-5.5273-0.87891l0.77734-4.7266c2.3711 1.0938 4.7578 2.1055 7.4492 3.1641 0.80469 0.31641 1.7109-0.078124 2.0273-0.88281 0.31641-0.80078-0.078125-1.7109-0.88281-2.0273-1.543-0.60547-2.9766-1.207-4.3477-1.7969l1.707-5.9961c1.4609 1.0547 2.625 1.8984 4.3633 3.1445 0.70312 0.5 1.6758 0.33984 2.1797-0.36328 0.50391-0.70313 0.33984-1.6758-0.36328-2.1797-1.2852-0.91797-2.4062-1.7305-3.3281-2.3945l-1.0352-0.74609c-1.6719-1.2656-4.3008-0.34375-4.8164 1.6836l-1.5977 5.5781c-1.8555-0.89844-4.125 0.30859-4.4258 2.3125l-0.79297 4.7383-1.5078-0.23828c-1.8359-0.33984-3.6719 1.2031-3.6289 3.0742v51.797c0 1.5391 1.1016 2.8359 2.6289 3.0898l36.797 5.8789c1.8867 4.3477 13.016 4.3438 14.902 0l36.805-5.8789c1.5156-0.25 2.6211-1.5508 2.6211-3.0859l0.019531-51.801c0.042969-1.8633-1.7891-3.418-3.6211-3.0742z"/>
             <path d="m65.723 54.367c-2.2188 0.074218-1.9609 3.4414 0.26953 3.1172 0.039062-0.003906 20.363-2.7109 20.363-2.7109 1.543-0.21484 2.7031-1.5469 2.7031-3.0938v-10.906c0.042968-1.8398-1.7188-3.3906-3.5352-3.1094l-8.5156 1.1406c-2.0352 0.3125-1.6211 3.332 0.41406 3.0977l8.5117-1.125-0.003906 10.906-20.211 2.6875z"/>
             <path d="m23.137 45.082c2.0234 0.28125 2.5078-2.7383 0.47656-3.0898l-9.3125-1.4375c-0.85156-0.125-1.6523 0.45312-1.7812 1.3047-0.13281 0.85156 0.45312 1.6484 1.3047 1.7812l9.3125 1.4375z"/>
             <path d="m13.824 48.332 8.0938 1.25c0.082031 0.011719 0.16016 0.019531 0.24219 0.019531 1.8789 0.011719 2.1172-2.8242 0.23828-3.1055l-8.0938-1.25c-2.0312-0.27734-2.5039 2.7383-0.47656 3.0898z"/>
             <path d="m13.824 53.02c0.10547 0.011719 13.945 2.1484 14.043 2.1523 0 0 3.5469 0.55078 3.5469 0.55078 0.082032 0.011719 0.16016 0.019532 0.24219 0.019532 1.8789 0.011718 2.1172-2.8242 0.23828-3.1055-2.4414-0.37891-14.895-2.2852-17.594-2.7031-2.0273-0.27344-2.5078 2.7383-0.47266 3.0898z"/>
             <path d="m34.379 60.859c1.8789 0.011719 2.1211-2.8242 0.23438-3.1055 0 0-20.312-3.125-20.312-3.125-2.0273-0.27344-2.5078 2.7383-0.47266 3.0898 0 0 20.312 3.125 20.312 3.125 0.082031 0.011719 0.16016 0.019531 0.23828 0.019531z"/>
             <path d="m61.801 51.52c0-2.4531 1.0156-4.9023 2.8594-6.8906 3.4375-3.707 5.3281-8.5312 5.3281-13.586 0.23438-10.953-9.6055-20.535-20.555-19.98-16.898 0.40625-25.777 21.25-14.086 33.574 1.8398 1.9805 2.8516 4.4258 2.8516 6.8789 0 1.9453 0.98828 3.6602 2.4844 4.6797-0.76953 1.0742-0.32812 5.8789-0.4375 7.3086-0.003906 2.2266 1.8789 4.0039 4.0938 3.9062v1.4531c0 2.5859 2.1016 4.6875 4.6875 4.6875h1.9375c2.5859 0 4.6875-2.1016 4.6875-4.6875v-1.4531c2.2188 0.097656 4.1016-1.6797 4.0938-3.9062-0.10938-1.5234 0.33594-6.1914-0.4375-7.3086 1.5-1.0195 2.4844-2.7344 2.4844-4.6797zm-9.2695 17.348c0 0.86328-0.69922 1.5625-1.5625 1.5625h-1.9375c-0.86328 0-1.5625-0.69922-1.5625-1.5625v-1.4531h5.0625zm4.0938-5.3633c-0.039062 1.1562-1.6094 0.69141-2.5312 0.78125h-9.9414c-0.42969 0-0.78125-0.35156-0.78125-0.78125v-5.5508c0-0.42969 0.35156-0.78125 0.78125-0.78125h11.691c0.42969 0 0.78125 0.35156 0.78125 0.78125zm2.0508-11.984c0.007813 1.5195-1.3359 2.668-2.8281 2.5312h-11.691-0.29688c-1.3945 0-2.5312-1.1367-2.5312-2.5312 0-3.2461-1.3086-6.4453-3.6875-9.0078-2.9336-3.1602-4.5312-7.2773-4.5-11.59 0.054687-9.1445 7.7227-16.766 16.867-16.742 9.0547-0.1875 17.055 7.8008 16.859 16.863 0 4.2656-1.5977 8.332-4.4961 11.461-2.3828 2.5664-3.6953 5.7695-3.6953 9.0156z"/>
             <path d="m20.543 30.762c-1.1211 0.61719-1.082 2.2578 0.046875 2.7969 5.2969 2.7891 7.4336 9.4102 4.7617 14.785-0.57812 1.0781 0.41406 2.4805 1.625 2.2578 3.1523-0.55469 5.2656 0.55859 8.0195 1.5938 0.53906 0 1.0625-0.28125 1.3555-0.78125 1.4375-2.8711-5.418-4.0039-7.2773-4.0586 1.6016-5.5664-0.37109-11.652-4.9336-15.211 4.5625-3.5586 6.5352-9.6445 4.9336-15.211 5.707-0.10938 11.078-4.0195 12.938-9.3906 4.6953 3.2578 11.301 3.25 15.984 0.007812 1.8711 5.375 7.2305 9.2656 12.93 9.3828-1.6016 5.5664 0.37109 11.652 4.9336 15.211-4.5625 3.5586-6.5352 9.6445-4.9336 15.211-1.8633 0.074219-8.6992 1.1602-7.2773 4.0586 0.43359 0.75391 1.4023 0.99609 2.1367 0.57031 2.1953-1.2695 4.7227-1.75 7.2422-1.3867 1.2031 0.20703 2.207-1.1797 1.625-2.2578-2.6953-5.4062-0.50391-12.043 4.8203-14.824 1.1211-0.59375 1.043-2.168-0.011718-2.7578-5.332-2.7734-7.4883-9.418-4.8047-14.809 0.57422-1.0781-0.40625-2.4766-1.625-2.2578-5.8516 0.97656-11.727-3.3164-12.59-9.1445-0.16016-1.2188-1.793-1.7539-2.6406-0.85938-4.1094 4.2031-11.422 4.2266-15.57-0.003906-0.85547-0.875-2.4961-0.37109-2.6523 0.86719-0.83594 5.8242-6.7578 10.121-12.59 9.1406-1.1953-0.20703-2.2109 1.1797-1.625 2.2578 2.6797 5.3906 0.52344 12.035-4.8047 14.809z"/>
             <text x="0.0" y="117.5" font-size="5.0" font-weight="bold" font-family="Arbeit Regular, Helvetica, Arial-Unicode, Arial, Sans-serif" fill="#000000">Created by LUTFI GANI AL ACHMAD</text><text x="0.0" y="122.5" font-size="5.0" font-weight="bold" font-family="Arbeit Regular, Helvetica, Arial-Unicode, Arial, Sans-serif" fill="#000000">from Noun Project</text></svg>
     </symbol>
     <symbol id="icon-love" viewBox="-5.0 -10.0 110.0 135.0">
         <svg xmlns="http://www.w3.org/2000/svg" version="1.1" viewBox="-5.0 -10.0 110.0 135.0">
             <path d="m94.605 54.984v-45.684c0-2.5859-2.1016-4.6875-4.6875-4.6875h-44.594c-2.5859 0-4.6875 2.1016-4.6875 4.6875v3.7969c0 0.86328 0.69922 1.5625 1.5625 1.5625s1.5625-0.69922 1.5625-1.5625v-3.7969c0-0.86328 0.69922-1.5625 1.5625-1.5625h44.594c0.86328 0 1.5625 0.69922 1.5625 1.5625v45.312h-20.188c-2.0469 0.035157-2.0586 3.0898 0 3.125h21.711c0.42578 0.011719 0.75781 0.35547 0.75781 0.78125 0 0.42969-0.33203 0.76953-0.71875 0.78125h-17.781c-2.0508 0.03125-2.0547 3.0898 0 3.125h16.938v6.25h-15.219c-0.86328 0-1.5625 0.69922-1.5625 1.5625s0.69922 1.5625 1.5625 1.5625h16c1.0156 0.003907 1.0234 1.5586 0 1.5625h-12.719c-2.0508 0.035157-2.0547 3.0898 0 3.125h12.719c3.6875 0.074219 5.3164-4.8984 2.3438-7.0117v-7.832c2.332-1.582 1.9297-5.6172-0.71875-6.6602z"/>
             <path d="m66.902 45.145h16.719c3.4453 0 6.25-2.8047 6.25-6.25v-22.906c0-3.4453-2.8047-6.25-6.25-6.25h-31.141c-0.86328 0-1.5625 0.69922-1.5625 1.5625s0.69922 1.5625 1.5625 1.5625h31.141c1.7227 0 3.125 1.4023 3.125 3.125v22.906c0 1.7227-1.4023 3.125-3.125 3.125h-16.719c-2.0469 0.027344-2.0586 3.0938 0 3.125z"/>
             <path d="m72.348 32.602c-1.7422 0.65625-3.5234 1.3281-4.793 2.6211-1.2891-1.1055-4.0547-3.3789-5.2188-1.1758-0.33984 0.79297 0.03125 1.7109 0.82422 2.0508 1.8008 0.76953 2.582 1.4727 2.8828 2.6055 0.18359 0.68359 0.80078 1.1602 1.5078 1.1602 0.71094 0 1.3281-0.47266 1.5117-1.1562 0.4375-1.6211 1.875-2.2344 4.3867-3.1797 3.207-1.2109 7.1953-2.7148 9.082-8.1016 3.1992-9.5039-7.1484-17.148-14.977-10.684-2.8359-2.4688-7.5039-3.1367-10.781-1.2852-0.75391 0.42578-1.0195 1.3789-0.59375 2.1289 0.42578 0.75 1.3789 1.0195 2.1289 0.59375 2.457-1.3828 6.3984-0.50391 7.9609 1.7734 0.28906 0.42578 0.77344 0.67578 1.2852 0.67969 0.51562 0 0.99609-0.25391 1.2891-0.67578 1.6406-2.3828 5.8828-3.1992 8.2656-1.5859 2.4414 1.6289 3.5 5.082 2.4688 8.0273-1.4023 4.0078-4.2344 5.0742-7.2344 6.207z"/>
             <path d="m21.426 86.551c1.4844 6.3086 8.1914 10.5 14.453 8.1992l39.09-13.656c3.4922-1.1211 3.4141-6.3906-0.097656-7.3906l-2.5898-7.4141c1.6875-2.2812-0.058594-5.9141-2.8828-6.0352l-15.062-43.129c-0.86328-2.4258-3.5352-3.7148-5.9727-2.8711l-42.094 14.699c-2.4258 0.86328-3.7148 3.5391-2.875 5.9727zm47.875-21.684c-0.054687 0.019531-39.09 13.656-39.09 13.656-5.1797 1.6953-5.6172 9.2656-0.65234 11.527 1.5 0.72266 3.1914 0.82031 4.7578 0.27734 0.019532-0.003906 39.137-13.664 39.137-13.664 0.40234-0.12109 0.82812 0.089844 0.96484 0.48438 0.12109 0.50391-0.023438 0.76953-0.48047 0.99219l-39.09 13.656c-9.8438 3.0664-14.816-10.98-5.1523-14.754 0.24219-0.035157 39.117-13.754 39.348-13.699 0.83984-0.019531 1.0859 1.2539 0.25781 1.5195zm2.3594 9.1094-38.355 13.398c-1.5664 0.58984-3.4609-0.32812-3.9805-1.918-0.56641-1.6211 0.28516-3.3945 1.8984-3.9727 0.019532-0.003906 38.375-13.402 38.375-13.402l2.0586 5.8945zm-64.352-42.078 42.09-14.703c0.8125-0.27734 1.7109 0.15234 1.9961 0.96094l14.938 42.781-37.668 13.156c-2.8906 1.0078-5.0859 3.1211-6.2891 5.6953l-16.027-45.891c-0.28125-0.8125 0.15234-1.7109 0.96094-2z"/>
             <path d="m17.508 61.34c1.1328 3.2852 4.793 4.9727 7.9648 3.8398l30.328-10.594c3.1953-1.043 5.0156-4.8125 3.8398-7.9609l-7.5508-21.613c-1.0469-3.1953-4.8086-5.0117-7.9609-3.8398l-30.332 10.594c-3.25 1.1367-4.9727 4.707-3.8398 7.9609zm-2.6797-26.629 30.332-10.594c1.5742-0.58203 3.4609 0.32031 3.9805 1.918l7.5508 21.617c0.58594 1.5742-0.32031 3.4609-1.918 3.9805l-30.328 10.594c-1.6289 0.57031-3.4102-0.29297-3.9805-1.918l-7.5508-21.613c-0.56641-1.6289 0.29297-3.4141 1.918-3.9805z"/>
             <path d="m31.906 52.746c2.6797 0.066406 4.2383 0.17188 5.1875 1.5625 0.29688 0.4375 0.78516 0.68359 1.2891 0.68359 0.88672 0.011718 1.6367-0.78906 1.5586-1.6758-0.125-1.6797 1.0312-2.7344 3.0859-4.4531 2.625-2.1992 5.8945-4.9336 5.8945-10.648 0-4.5625-3.0742-8.6797-7.3086-9.793-3.8516-1.0117-8.3789 1.1641-10.344 4.6484-3.6992-1.5039-8.6016-0.39062-10.984 2.8008-2.6211 3.5078-2.4648 8.6445 0.375 12.215 3.5586 4.4688 7.8203 4.5742 11.242 4.6602zm-9.1172-15c1.6992-2.2773 5.9531-2.9414 8.3281-1.2148 0.41797 0.30859 0.95703 0.38672 1.4414 0.21484 0.48438-0.16797 0.85938-0.57031 0.99219-1.0664 0.75781-2.7852 4.4961-4.957 7.2734-4.2344 2.8398 0.74609 4.9766 3.6562 4.9766 6.7695 0.13281 6.6016-5.9258 7.6211-8.4336 12.301-4.8789-2.1016-10.25 0.87109-14.258-4.375-1.9414-2.4375-2.0781-6.0469-0.32031-8.3945z"/>
             <text x="0.0" y="117.5" font-size="5.0" font-weight="bold" font-family="Arbeit Regular, Helvetica, Arial-Unicode, Arial, Sans-serif" fill="#000000">Created by LUTFI GANI AL ACHMAD</text><text x="0.0" y="122.5" font-size="5.0" font-weight="bold" font-family="Arbeit Regular, Helvetica, Arial-Unicode, Arial, Sans-serif" fill="#000000">from Noun Project</text></svg>
     </symbol>
     <symbol id="icon-review" viewBox="-5.0 -10.0 110.0 135.0">
         <svg xmlns="http://www.w3.org/2000/svg" version="1.1" viewBox="-5.0 -10.0 110.0 135.0">
             <path d="m10.945 78.906h25.434l-2.2422 3.9258c-1.832 2.9727 0.57812 7.1328 4.0703 7.0117h17.355c3.4883 0.11719 5.9062-4.043 4.0703-7.0117 0 0-2.2422-3.9258-2.2422-3.9258h25.434c4.3086 0 7.8125-3.5039 7.8125-7.8125v-25.094c0-0.86328-0.69922-1.5625-1.5625-1.5625s-1.5625 0.69922-1.5625 1.5625v25.094c0 2.5859-2.1016 4.6875-4.6875 4.6875h-43.75-28.129c-2.5859 0-4.6875-2.1016-4.6875-4.6875v-53.125c0-2.5859 2.1016-4.6875 4.6875-4.6875h71.875c2.4102 0 4.4141 1.8047 4.668 4.1953 0.23438 2.0391 3.2969 1.7148 3.1055-0.32812-0.41797-3.9844-3.7578-6.9922-7.7734-6.9922h-71.875c-4.3086 0-7.8125 3.5039-7.8125 7.8125v53.125c0 4.3086 3.5039 7.8125 7.8125 7.8125zm25.902 5.4727 3.1289-5.4766h13.812l3.1289 5.4766c0.40234 0.70312 0.12891 1.3242-0.007813 1.5586-0.13672 0.23438-0.53906 0.77734-1.3516 0.77734h-17.355c-0.8125 0-1.2148-0.54297-1.3516-0.77734-0.13672-0.23438-0.41016-0.85547-0.007812-1.5586z"/>
             <path d="m12.508 17.969c2.0547-0.035156 2.0547-3.0898 0-3.125h-1.5625c-2.0547 0.035156-2.0547 3.0898 0 3.125z"/>
             <path d="m18.758 17.969c2.0547-0.035156 2.0547-3.0898 0-3.125h-1.5625c-2.0547 0.035156-2.0547 3.0898 0 3.125z"/>
             <path d="m25.008 17.969c2.0547-0.035156 2.0547-3.0898 0-3.125h-1.5625c-2.0547 0.035156-2.0547 3.0898 0 3.125z"/>
             <path d="m7.8203 22.656c0 0.86328 0.69922 1.5625 1.5625 1.5625h15.625c0.86328 0 1.5625-0.69922 1.5625-1.5625s-0.69922-1.5625-1.5625-1.5625h-15.625c-0.86328 0-1.5625 0.69922-1.5625 1.5625z"/>
             <path d="m37.508 27.344h-28.125c-2.0469 0.03125-2.0586 3.0898 0 3.125h28.125c2.0469-0.03125 2.0625-3.0898 0-3.125z"/>
             <path d="m37.508 33.594h-28.125c-2.0469 0.03125-2.0586 3.0898 0 3.125h28.125c2.0469-0.03125 2.0625-3.0898 0-3.125z"/>
             <path d="m37.508 39.844h-28.125c-2.0469 0.03125-2.0586 3.0898 0 3.125h28.125c2.0469-0.03125 2.0625-3.0898 0-3.125z"/>
             <path d="m15.633 49.219c2.0508-0.035156 2.0547-3.0898 0-3.125h-6.25c-2.0508 0.035156-2.0547 3.0898 0 3.125z"/>
             <path d="m9.3828 55.469h28.125c2.0469-0.03125 2.0625-3.0898 0-3.125h-28.125c-2.0469 0.03125-2.0586 3.0898 0 3.125z"/>
             <path d="m39.07 60.156c0-0.86328-0.69922-1.5625-1.5625-1.5625h-28.125c-0.86328 0-1.5625 0.69922-1.5625 1.5625s0.69922 1.5625 1.5625 1.5625h28.125c0.86328 0 1.5625-0.69922 1.5625-1.5625z"/>
             <path d="m9.3828 64.844c-2.0469 0.03125-2.0586 3.0898 0 3.125h23.438c2.0469-0.03125 2.0586-3.0898 0-3.125z"/>
             <path d="m70.32 24.219c2.0508-0.03125 2.0586-3.0898 0-3.125h-20.312c-2.0469 0.03125-2.0586 3.0898 0 3.125z"/>
             <path d="m50.008 30.469h19.953c2.0469-0.03125 2.0586-3.0898 0-3.125h-19.953c-2.0469 0.03125-2.0586 3.0898 0 3.125z"/>
             <path d="m50.008 36.719h14.266c2.0508-0.03125 2.0586-3.0898 0-3.125h-14.266c-2.0508 0.03125-2.0586 3.0898 0 3.125z"/>
             <path d="m50.008 42.969h8.5938c2.0508-0.035156 2.0547-3.0898 0-3.125h-8.5938c-2.0508 0.035156-2.0547 3.0898 0 3.125z"/>
             <path d="m42.195 22.656v45.312c0.03125 2.0391 3.0898 2.0664 3.125 0v-45.312c-0.03125-2.0391-3.0898-2.0664-3.125 0z"/>
             <path d="m81.523 20.816-29.191 32.121c-0.19141 0.21094-0.29297 0.48047-0.375 0.74609-0.76562 3.8008-2.332 11.68-3.1016 15.512-0.25781 1.1094 0.90234 2.168 1.9844 1.8008l8.3398-2.5195c0.45703-0.21875 7.4609-2.0195 7.5117-2.4883 0 0 29.188-32.117 29.188-32.117 4.9219-6.4609-9.8594-18.273-14.355-13.051zm-0.50781 5.2031c0.26172 0.71875 0.625 1.457 1.1016 2.207l-22.359 24.602c-0.78906-0.40625-1.5586-0.69922-2.2969-0.89453l23.555-25.918zm3.0703 4.6914c0.53125 0.54297 1.1055 1.0703 1.7031 1.5469l-21.664 23.84c-0.52344-0.54297-1.1133-1.082-1.7031-1.5469zm-31.656 36.539 0.77734-3.8789c1.1133 0.75391 2.1406 1.6836 2.9844 2.7031 0.027344 0.03125-3.7578 1.1758-3.7578 1.1758zm12.086-3.6406-5.1055 1.5352c-1.4531-2.0391-3.3867-3.8008-5.5508-5.0352l1.0469-5.2305c3.1914-0.99609 10.297 5.4375 9.6133 8.7344zm2.6797-2.8281c-0.26562-0.71875-0.62891-1.4531-1.1094-2.1992l22.363-24.609c0.79297 0.40625 1.5625 0.69531 2.3047 0.88672zm26.242-31.137c2.0078 5.6172-6.8281 0.11328-8.0898-2.2422-1.7812-2.4219-2.4961-4.793-0.63672-4.7422 2.3945-0.29688 7.8633 4.0117 8.7266 6.9844z"/>
             <text x="0.0" y="117.5" font-size="5.0" font-weight="bold" font-family="Arbeit Regular, Helvetica, Arial-Unicode, Arial, Sans-serif" fill="#000000">Created by LUTFI GANI AL ACHMAD</text><text x="0.0" y="122.5" font-size="5.0" font-weight="bold" font-family="Arbeit Regular, Helvetica, Arial-Unicode, Arial, Sans-serif" fill="#000000">from Noun Project</text></svg>
     </symbol>
 </defs>
</svg>
